<?xml version="1.0" encoding="utf-8"?>
<!-- Generator: Adobe Illustrator 16.0.0, SVG Export Plug-In . SVG Version: 6.00 Build 0)  -->
<!DOCTYPE svg PUBLIC "-//W3C//DTD SVG 1.1//EN" "http://www.w3.org/Graphics/SVG/1.1/DTD/svg11.dtd">
<svg version="1.1" id="Layer_1" xmlns="http://www.w3.org/2000/svg" xmlns:xlink="http://www.w3.org/1999/xlink" x="0px" y="0px"
	 width="16px" height="16px" viewBox="0 0 16 16" enable-background="new 0 0 16 16" xml:space="preserve">
<path fill="#FFFFFF" d="M2,0v2c6.64,0,12,5.36,12,12h2C16,6.28,9.719,0,2,0z M2,4v2c4.42,0,8,3.58,8,8h2C12,8.48,7.52,4,2,4z M2,8v2
	c2.22,0,4,1.781,4,4h2C8,10.699,5.3,8,2,8z M2,12c-1.1,0-2,0.9-2,2s0.9,2,2,2s2-0.9,2-2S3.1,12,2,12z"/>
</svg>
