<?xml version="1.0" encoding="utf-8"?>
<!-- Generator: Adobe Illustrator 15.0.2, SVG Export Plug-In . SVG Version: 6.00 Build 0)  -->
<!DOCTYPE svg PUBLIC "-//W3C//DTD SVG 1.1//EN" "http://www.w3.org/Graphics/SVG/1.1/DTD/svg11.dtd">
<svg version="1.1" id="Folder" xmlns="http://www.w3.org/2000/svg" xmlns:xlink="http://www.w3.org/1999/xlink" x="0px" y="0px"
	 width="16px" height="16px" viewBox="0 0 16 16" enable-background="new 0 0 16 16" xml:space="preserve">
<path fill="#FFFFFF" d="M14.729,4.241c-0.089-0.353-0.524-0.64-0.969-0.64H8.304c-0.443,0-1.064-0.255-1.379-0.566L6.449,2.564
	C6.135,2.253,5.514,2,5.071,2H2.465C2.02,2,1.617,2.358,1.568,2.796L1.334,5.202H14.89L14.729,4.241z M15.536,6.003H0.464
	c-0.273,0-0.488,0.235-0.462,0.508l0.739,7.742c0.029,0.315,0.295,0.557,0.613,0.557h13.291c0.317,0,0.583-0.242,0.613-0.557
	l0.739-7.742C16.024,6.239,15.809,6.003,15.536,6.003z"/>
</svg>
