<?xml version="1.0" encoding="utf-8"?>
<!-- Generator: Adobe Illustrator 15.0.2, SVG Export Plug-In . SVG Version: 6.00 Build 0)  -->
<!DOCTYPE svg PUBLIC "-//W3C//DTD SVG 1.1//EN" "http://www.w3.org/Graphics/SVG/1.1/DTD/svg11.dtd">
<svg version="1.1" id="News" xmlns="http://www.w3.org/2000/svg" xmlns:xlink="http://www.w3.org/1999/xlink" x="0px" y="0px"
	 width="16px" height="16px" viewBox="0 0 16 16" enable-background="new 0 0 16 16" xml:space="preserve">
<path fill="#FFFFFF" d="M11.555,3.555H8v1.778h3.555V3.555z M11.555,6.222H8v0.889h3.555V6.222z M7.111,3.555H4.445v3.556h2.667
	V3.555z M7.111,8.888h4.444V8H7.111V8.888z M9.778,10.666h1.778V9.778H9.778V10.666z M11.555,11.555H4.445v0.889h7.111V11.555z
	 M8.889,9.778H4.445v0.889h4.444V9.778z M6.222,8H4.445v0.889h1.778V8z M14.222,0H1.778C1.286,0,0.889,0.397,0.889,0.888v14.223
	c0,0.49,0.397,0.889,0.889,0.889h12.445c0.491,0,0.889-0.398,0.889-0.889V0.888C15.111,0.398,14.714,0,14.222,0z M13.333,14.222
	H2.667V1.778h10.667V14.222z"/>
</svg>
