<?xml version="1.0" encoding="utf-8"?>
<!-- Generator: Adobe Illustrator 15.0.2, SVG Export Plug-In . SVG Version: 6.00 Build 0)  -->
<!DOCTYPE svg PUBLIC "-//W3C//DTD SVG 1.1//EN" "http://www.w3.org/Graphics/SVG/1.1/DTD/svg11.dtd">
<svg version="1.1" id="Graduation_cap" xmlns="http://www.w3.org/2000/svg" xmlns:xlink="http://www.w3.org/1999/xlink" x="0px"
	 y="0px" width="16px" height="16px" viewBox="0 0 16 16" enable-background="new 0 0 16 16" xml:space="preserve">
<path fill="#FFFFFF" d="M2.642,9.87c0.371,1.503,0.843,2.161,2.417,2.85c1.575,0.688,2.323,1.44,2.94,1.44s1.318-0.658,2.893-1.347
	c1.575-0.689,1.154-0.898,1.525-2.401L8,12.559L2.642,9.87z M15.609,5.948l-6.66-3.73c-0.522-0.292-1.376-0.292-1.898,0l-6.661,3.73
	c-0.521,0.292-0.521,0.77,0,1.062l6.66,3.73c0.521,0.292,1.376,0.292,1.897,0l4.306-2.412L8.585,7.236
	C8.405,7.28,8.208,7.304,8,7.304C7.159,7.304,6.477,6.9,6.477,6.4C6.477,5.898,7.16,5.493,8,5.493c0.653,0,1.208,0.246,1.424,0.587
	l4.945,1.623l1.239-0.693C16.13,6.719,16.13,6.24,15.609,5.948z M13.574,13.015c-0.052,0.308,1.026,0.814,1.129-0.085
	c0.463-4.058-0.333-5.225-0.333-5.225L13.254,8.33C13.254,8.329,14.2,9.23,13.574,13.015z"/>
</svg>
