<?xml version="1.0" encoding="utf-8"?>
<!-- Generator: Adobe Illustrator 15.0.2, SVG Export Plug-In . SVG Version: 6.00 Build 0)  -->
<!DOCTYPE svg PUBLIC "-//W3C//DTD SVG 1.1//EN" "http://www.w3.org/Graphics/SVG/1.1/DTD/svg11.dtd">
<svg version="1.1" id="Video" xmlns="http://www.w3.org/2000/svg" xmlns:xlink="http://www.w3.org/1999/xlink" x="0px" y="0px"
	 width="16px" height="16px" viewBox="0 0 16 16" enable-background="new 0 0 16 16" xml:space="preserve">
<g>
	<polygon fill="none" points="6.4,10.588 10.4,8.188 6.4,5.788 	"/>
	<path fill="#FFFFFF" d="M16,4.188V3.227c0-0.354-0.286-0.639-0.639-0.639H0.64C0.286,2.588,0,2.873,0,3.227v0.961h1.6v1.6H0v1.6
		h1.6v1.6H0v1.6h1.6v1.6H0v0.959c0,0.354,0.287,0.641,0.641,0.641h14.72c0.354,0,0.639-0.288,0.639-0.641v-0.959h-1.6v-1.6H16v-1.6
		h-1.6v-1.6H16v-1.6h-1.6v-1.6H16z M6.4,10.588v-4.8l4,2.4L6.4,10.588z"/>
</g>
</svg>
