<?xml version="1.0" encoding="utf-8"?>
<!-- Generator: Adobe Illustrator 15.0.2, SVG Export Plug-In . SVG Version: 6.00 Build 0)  -->
<!DOCTYPE svg PUBLIC "-//W3C//DTD SVG 1.1//EN" "http://www.w3.org/Graphics/SVG/1.1/DTD/svg11.dtd">
<svg version="1.1" id="Add_to_list" xmlns="http://www.w3.org/2000/svg" xmlns:xlink="http://www.w3.org/1999/xlink" x="0px"
	 y="0px" width="16px" height="16px" viewBox="0 0 16 16" enable-background="new 0 0 16 16" xml:space="preserve">
<path fill="#FFFFFF" d="M15.52,7H12.8V4.28c0-0.48-0.32-0.48-0.8-0.48s-0.8,0-0.8,0.48V7H8.48C8,7,8,7.32,8,7.8s0,0.8,0.48,0.8h2.72
	v2.72c0,0.48,0.32,0.48,0.8,0.48s0.8,0,0.8-0.48V8.6h2.72C16,8.6,16,8.28,16,7.8S16,7,15.52,7z M5.92,7H0.48C0,7,0,7.32,0,7.8
	s0,0.8,0.48,0.8h5.44C6.4,8.6,6.4,8.28,6.4,7.8S6.4,7,5.92,7z M5.92,11H0.48C0,11,0,11.32,0,11.8s0,0.8,0.48,0.8h5.44
	c0.48,0,0.48-0.32,0.48-0.8S6.4,11,5.92,11z M5.92,3H0.48C0,3,0,3.32,0,3.8s0,0.8,0.48,0.8h5.44C6.4,4.6,6.4,4.28,6.4,3.8
	S6.4,3,5.92,3z"/>
</svg>
