<?xml version="1.0" encoding="utf-8"?>
<!-- Generator: Adobe Illustrator 15.0.2, SVG Export Plug-In . SVG Version: 6.00 Build 0)  -->
<!DOCTYPE svg PUBLIC "-//W3C//DTD SVG 1.1//EN" "http://www.w3.org/Graphics/SVG/1.1/DTD/svg11.dtd">
<svg version="1.1" id="Mail" xmlns="http://www.w3.org/2000/svg" xmlns:xlink="http://www.w3.org/1999/xlink" x="0px" y="0px"
	 width="16px" height="16px" viewBox="0 0 16 16" enable-background="new 0 0 16 16" xml:space="preserve">
<path fill="#FFFFFF" d="M0.51,4.143c0.434,0.233,6.442,3.461,6.667,3.582c0.224,0.12,0.514,0.177,0.805,0.177
	c0.292,0,0.582-0.057,0.806-0.177c0.224-0.12,6.233-3.349,6.667-3.582C15.888,3.909,16.299,3,15.502,3H0.463
	C-0.335,3,0.076,3.909,0.51,4.143z M15.656,6.101C15.162,6.358,9.09,9.522,8.787,9.68S8.274,9.858,7.982,9.858
	c-0.292,0-0.503-0.019-0.805-0.177S0.836,6.357,0.343,6.1C-0.004,5.919,0,6.131,0,6.295s0,6.483,0,6.483
	c0,0.374,0.503,0.889,0.889,0.889h14.222c0.386,0,0.889-0.515,0.889-0.889c0,0,0-6.318,0-6.482S16.003,5.92,15.656,6.101z"/>
</svg>
