<?xml version="1.0" encoding="utf-8"?>
<!-- Generator: Adobe Illustrator 16.0.0, SVG Export Plug-In . SVG Version: 6.00 Build 0)  -->
<!DOCTYPE svg PUBLIC "-//W3C//DTD SVG 1.1//EN" "http://www.w3.org/Graphics/SVG/1.1/DTD/svg11.dtd">
<svg version="1.1" id="Layer_1" xmlns="http://www.w3.org/2000/svg" xmlns:xlink="http://www.w3.org/1999/xlink" x="0px" y="0px"
	 width="16px" height="16px" viewBox="0 0 16 16" enable-background="new 0 0 16 16" xml:space="preserve">
<path fill="#FFFFFF" d="M3,0C2.86,0,2.74,0.02,2.62,0.06C1.84,0.22,1.22,0.84,1.06,1.62C1,1.74,1,1.86,1,2v11c0,1.66,1.34,3,3,3h11
	v-2H4c-0.56,0-1-0.441-1-1s0.44-1,1-1h11V1c0-0.56-0.441-1-1-1h-1v6l-2-2L9,6V0H3z"/>
</svg>
