<?xml version="1.0" encoding="utf-8"?>
<!-- Generator: Adobe Illustrator 15.0.2, SVG Export Plug-In . SVG Version: 6.00 Build 0)  -->
<!DOCTYPE svg PUBLIC "-//W3C//DTD SVG 1.1//EN" "http://www.w3.org/Graphics/SVG/1.1/DTD/svg11.dtd">
<svg version="1.1" id="Magnifying_glass" xmlns="http://www.w3.org/2000/svg" xmlns:xlink="http://www.w3.org/1999/xlink" x="0px"
	 y="0px" width="16px" height="16px" viewBox="0 0 16 16" enable-background="new 0 0 16 16" xml:space="preserve">
<path fill="#FFFFFF" d="M15.64,13.535l-3.827-3.827c0.577-0.947,0.909-2.061,0.909-3.25C12.723,2.997,9.724,0,6.264,0
	C2.804-0.001,0,2.804,0,6.264c0,3.459,2.999,6.458,6.458,6.458c1.151,0,2.228-0.313,3.154-0.854l3.847,3.849
	c0.376,0.375,0.987,0.375,1.363,0l0.955-0.955C16.153,14.386,16.016,13.911,15.64,13.535z M1.928,6.264
	c0-2.396,1.941-4.337,4.336-4.337c2.396,0,4.53,2.134,4.53,4.531c0,2.395-1.942,4.337-4.337,4.337
	C4.062,10.794,1.928,8.659,1.928,6.264z"/>
</svg>
