<?xml version="1.0" encoding="utf-8"?>
<!-- Generator: Adobe Illustrator 15.0.2, SVG Export Plug-In . SVG Version: 6.00 Build 0)  -->
<!DOCTYPE svg PUBLIC "-//W3C//DTD SVG 1.1//EN" "http://www.w3.org/Graphics/SVG/1.1/DTD/svg11.dtd">
<svg version="1.1" id="Lab_flask" xmlns="http://www.w3.org/2000/svg" xmlns:xlink="http://www.w3.org/1999/xlink" x="0px" y="0px"
	 width="16px" height="16px" viewBox="0 0 16 16" enable-background="new 0 0 16 16" xml:space="preserve">
<path fill="#FFFFFF" d="M13.939,12.444C12.122,7.905,10,6.708,10,4.444V1.778h0.444c0.246,0,0.444-0.199,0.444-0.444V0.444
	C10.888,0.199,10.69,0,10.444,0H6C5.755,0,5.555,0.199,5.555,0.444v0.889c0,0.245,0.199,0.444,0.444,0.444h0.444v2.667
	c0,2.264-2.121,3.46-3.939,8C1.927,13.888,0.44,16,8.222,16S14.518,13.888,13.939,12.444z M12.502,14.001
	c-0.624,0.187-1.865,0.399-4.279,0.399s-3.656-0.212-4.28-0.399c-0.222-0.066-0.308-0.323-0.229-0.558
	c0.195-0.596,0.564-1.625,1.254-2.774c1.686-2.808,3.435,0.442,4.89,0.442s1.056-1.388,1.621-0.442
	c0.688,1.15,1.059,2.179,1.254,2.774C12.809,13.678,12.723,13.934,12.502,14.001z"/>
</svg>
