<?xml version="1.0" encoding="utf-8"?>
<!-- Generator: Adobe Illustrator 15.0.2, SVG Export Plug-In . SVG Version: 6.00 Build 0)  -->
<!DOCTYPE svg PUBLIC "-//W3C//DTD SVG 1.1//EN" "http://www.w3.org/Graphics/SVG/1.1/DTD/svg11.dtd">
<svg version="1.1" id="Layer_1" xmlns="http://www.w3.org/2000/svg" xmlns:xlink="http://www.w3.org/1999/xlink" x="0px" y="0px"
	 width="180px" height="45px" viewBox="0 0 180 45" enable-background="new 0 0 180 45" xml:space="preserve">
<path fill="#384252" d="M9.208,3.149c2.993,0.917,9.426,1.95,12.795,4.824c1.275,1.088,2.55,2.208,2.55,5.38
	c0,2.708,0,27.431,0,27.431h-5.927V14.876c-0.189-0.813-2.1-3.508-6.037-4.771C9.143,9,6.599,9.626,6.599,9.626L6.434,40.783H0
	V6.917c0,0,0.693-2.51,3.048-3.725C4.657,2.362,7.434,2.605,9.208,3.149z"/>
<path fill="#384252" d="M117.957,40.287c-2.993-0.917-9.428-1.95-12.795-4.824c-1.275-1.087-2.551-2.206-2.551-5.379
	c0-2.709,0-27.431,0-27.431h5.928v25.908c0.189,0.813,2.1,3.508,6.037,4.771c3.445,1.104,5.988,0.479,5.988,0.479l0.166-31.158
	h6.434v33.865c0,0-0.693,2.512-3.048,3.726C122.507,41.075,119.73,40.831,117.957,40.287z"/>
<g>
	<path fill="#384252" d="M47.311,4.451c-6.8-6.127-19.856-2.259-21.87,6.876c4.159,0,6.044-0.073,6.044-0.073
		C33.868,4.072,42.16,6.259,43.474,9.5l0.013,5.794c0,0-17.378,3.72-18.045,12.185c-1.059,13.434,8.042,13.27,12.916,13.27
		c6.412,0,11.42-4.997,11.42-4.997c0-4.874,0-26.163,0-26.163S49.778,6.41,47.311,4.451L47.311,4.451z M43.729,32.531
		c-3.188,3.506-12.442,4.328-12.037-2.414c0.35-5.819,7.571-6.764,12.037-7.689C43.729,25.796,43.729,29.163,43.729,32.531z"/>
</g>
<g>
	<path fill="#384252" d="M89.446,1.48c-12.191,0-12.191,5.458-12.191,12.191v14.92c0,6.733,0,12.19,12.191,12.19
		c12.193,0,12.191-5.457,12.191-12.19v-14.92C101.639,6.939,102.02,1.48,89.446,1.48z M94.822,29.27c0,3.084,0,5.588-5.587,5.588
		c-5.588,0-5.588-2.504-5.588-5.588V12.337c0-3.087,0.217-5.589,5.588-5.589c5.587,0,5.587,2.502,5.587,5.589V29.27z"/>
</g>
<path fill="#384252" d="M51.983,2.653h5.588v18.479c0,0,4.055-1.455,5.959-2.091c1.905-0.635,5.724-2.684,5.724-3.996
	c0-1.904,0-12.392,0-12.392h6.096L75.3,18.31c-0.838,1.942-2.828,3.408-2.828,3.408l6.434,19.065h-6.223L66.46,24.568
	c0,0-2.032,0-4.953,1.397c-2.921,1.396-3.937,2.413-3.937,3.175s-0.127,11.605-0.127,11.605l-5.46,0.035V2.653z"/>
<path fill="#EA9423" d="M174.241,13.773h-34.009c-3.182,0-5.76,2.578-5.76,5.759v15.492c0,3.182,2.578,5.76,5.76,5.76h2.42
	L139.713,45l9.71-4.217h24.817c3.181,0,5.76-2.578,5.76-5.76V19.532C180,16.352,177.421,13.773,174.241,13.773z"/>
<text transform="matrix(1 0 0 1 136.9102 32.248)" fill="#FFFFFF" font-family="'Corbel'" font-size="15.2268">.com</text>
</svg>
